<svg xmlns="http://www.w3.org/2000/svg" width="70" height="76" viewBox="0 0 70 76"><path d="M36.265 33.138h-2.22V30H27.2v3.138h-2.22V27.97h.982c.36-.844.645-1.78.856-2.804.212-1.025.375-2.082.492-3.17.116-1.09.19-2.198.22-3.33.033-1.13.05-2.223.05-3.28v-1.363h7.417V27.97h1.268v5.168zm10.746-4.216c-.505.402-1.086.72-1.74.95-.657.234-1.386.35-2.19.35-1.647 0-2.947-.64-3.9-1.918-.95-1.28-1.424-3.154-1.424-5.627 0-1.29.09-2.472.27-3.55.18-1.078.464-2.013.855-2.806.39-.79.894-1.41 1.507-1.852.613-.444 1.342-.666 2.187-.666.655 0 1.258.133 1.807.398.55.264 1.015.692 1.396 1.283.38.593.676 1.36.887 2.3.212.94.317 2.087.317 3.44v1.362h-6.66c0 1.818.25 3.19.745 4.12.497.93 1.242 1.396 2.235 1.396.698 0 1.316-.12 1.855-.364.54-.243.966-.48 1.284-.713l.57 1.902zm-23.456-14.9V30h-2.44v-7.164h-3.678V30h-2.473V14.023h2.473v6.784h3.677v-6.784h2.44zm28.435 8.02V30h-2.474V14.023h2.473v7.386l3.835-7.388h2.504l-3.963 7.513L58.9 30h-2.696l-4.216-7.957zm12.71 8.18c-1.71 0-3.053-.682-4.025-2.045-.972-1.363-1.458-3.418-1.458-6.165 0-1.247.12-2.378.364-3.392.244-1.015.603-1.876 1.08-2.584.474-.708 1.066-1.257 1.774-1.648.708-.39 1.527-.587 2.457-.587.72 0 1.3.08 1.744.24.444.16.846.354 1.205.586l-.35 2.346c-.338-.295-.734-.553-1.188-.775-.454-.222-.935-.333-1.442-.333-.887 0-1.616.496-2.187 1.49-.57.993-.855 2.504-.855 4.533 0 2.007.238 3.555.713 4.644.477 1.088 1.22 1.63 2.236 1.63.613 0 1.14-.1 1.585-.3.445-.2.815-.427 1.11-.68l.57 1.838c-.42.36-.897.65-1.425.872-.53.22-1.163.332-1.902.332zM32.557 16.02h-2.758v.286c0 .845-.016 1.77-.048 2.773-.03 1.002-.1 2.022-.206 3.057-.105 1.036-.253 2.056-.443 3.06-.19 1.003-.453 1.928-.79 2.773h4.247V16.02zm10.017-.19c-.76 0-1.3.428-1.617 1.284-.317.856-.517 2.002-.602 3.44h4.09c0-.677-.032-1.306-.096-1.887-.063-.58-.163-1.083-.3-1.506-.138-.42-.328-.75-.57-.98-.244-.233-.546-.35-.905-.35z"/><path d="M7.323 21.314L3.455 30H.635l4.247-9.288c-.993-.507-1.797-1.252-2.41-2.235-.612-.983-.92-2.32-.92-4.01 0-1.183.176-2.224.524-3.122.35-.9.825-1.644 1.427-2.235.602-.592 1.305-1.036 2.108-1.332.805-.296 1.65-.444 2.538-.444h3.645V30h-2.44v-8.686h-2.03zm2.03-11.92h-1.3c-.487 0-.963.09-1.428.27-.465.18-.877.465-1.236.856-.36.39-.65.91-.874 1.554-.222.644-.333 1.442-.333 2.393 0 .91.1 1.67.302 2.282.2.61.475 1.11.824 1.49.347.38.76.65 1.235.807.476.158.977.237 1.506.237h1.3v-9.89z" fill="red"/><path d="M18.957 59.663h-.286c-.76 0-1.382.08-1.87.238-.484.16-.864.393-1.14.7-.274.305-.464.67-.57 1.093-.105.422-.16.887-.16 1.394 0 .93.155 1.67.46 2.22.308.55.778.824 1.41.824.425 0 .83-.12 1.22-.364.393-.243.705-.544.938-.903v-5.2zm2.44 4.723c0 .76.032 1.458.096 2.092.063.634.126 1.142.19 1.522H19.59c-.042-.17-.084-.37-.126-.602-.042-.233-.074-.455-.095-.666h-.16c-.36.444-.77.803-1.237 1.078-.465.275-1.046.412-1.744.412-1.14 0-2.066-.412-2.774-1.236-.708-.825-1.062-2.03-1.062-3.614 0-.846.116-1.617.348-2.314.233-.698.597-1.284 1.094-1.76.497-.475 1.136-.845 1.918-1.11.782-.263 1.733-.395 2.853-.395h.35v-.95c0-1.058-.176-1.82-.524-2.284-.35-.467-.872-.7-1.57-.7-.634 0-1.215.143-1.743.43-.527.284-1.003.606-1.426.966l-.475-2.188c.357-.297.88-.582 1.567-.857.687-.273 1.432-.41 2.235-.41.697 0 1.32.085 1.87.254.55.17 1.01.45 1.38.84.37.39.65.91.84 1.553.19.645.285 1.453.285 2.425v7.513zM26.947 68h-2.474V51.99h2.473v1.396h.16c.104-.148.257-.317.458-.507.2-.19.44-.366.713-.525.275-.158.576-.29.904-.396.328-.107.68-.16 1.063-.16 2.134 0 3.202 1.205 3.202 3.614V68H30.94V55.637c0-.613-.128-1.036-.38-1.268-.255-.234-.625-.35-1.11-.35-.53 0-1.005.163-1.427.49-.423.328-.782.693-1.078 1.094V68zm13.79.222c-1.587 0-2.79-.645-3.615-1.934-.824-1.29-1.236-3.18-1.236-5.674 0-2.96.502-5.167 1.506-6.625 1.004-1.46 2.31-2.19 3.915-2.19.38 0 .756.06 1.125.175.37.116.67.26.904.428v-7.07h2.473V68h-1.84l-.19-1.268h-.16c-.36.444-.766.803-1.22 1.078-.455.275-1.01.412-1.664.412zm2.6-13.63c-.256-.255-.525-.445-.81-.572-.286-.127-.64-.19-1.06-.19-.51 0-.948.174-1.318.523-.37.35-.677.814-.92 1.395-.243.58-.423 1.247-.54 1.997-.115.75-.173 1.537-.173 2.362 0 1.88.19 3.355.57 4.422.38 1.065 1.025 1.6 1.934 1.6.614 0 1.1-.128 1.46-.38.36-.255.644-.54.855-.858V54.59zM57.44 66.92c-.507.402-1.072.72-1.696.95-.623.234-1.336.35-2.14.35-1.648 0-2.947-.64-3.898-1.918-.95-1.28-1.427-3.154-1.427-5.627 0-1.29.09-2.472.27-3.55.177-1.078.462-2.013.853-2.806.39-.79.893-1.41 1.506-1.854.612-.444 1.34-.666 2.187-.666.655 0 1.257.133 1.806.398.55.264 1.015.692 1.395 1.283.38.594.675 1.36.887 2.3.21.94.317 2.088.317 3.44v1.363h-6.657c0 1.818.248 3.19.745 4.12.496.93 1.24 1.396 2.235 1.396.697 0 1.3-.123 1.807-.366.507-.243.92-.48 1.236-.713l.57 1.903zm-4.342-13.09c-.76 0-1.3.428-1.617 1.284-.315.856-.516 2.002-.6 3.44h4.09c0-.677-.033-1.306-.096-1.887-.064-.58-.164-1.083-.3-1.506-.14-.42-.33-.75-.572-.98-.242-.233-.543-.35-.902-.35zm15.152-1.807l-2.98 7.48L68.6 68h-2.57l-2.47-6.594L61.15 68h-2.442l3.33-8.274-3.013-7.703h2.568l2.06 5.8 2.188-5.8h2.41z"/><path d="M5.61 68v-8.115L.19 45.335h2.726l3.995 11.22L11.51 42.99h2.504L8.116 59.98V68" fill="red"/></svg>
