<?xml version="1.0" encoding="utf-8"?>
<!-- Generator: Adobe Illustrator 19.2.0, SVG Export Plug-In . SVG Version: 6.00 Build 0)  -->
<svg version="1.1" id="Слой_1" xmlns="http://www.w3.org/2000/svg" xmlns:xlink="http://www.w3.org/1999/xlink" x="0px" y="0px"
	 viewBox="0 0 364.4 59.5" style="enable-background:new 0 0 364.4 59.5;" xml:space="preserve">
<style type="text/css">
	.st0{fill:#9EC54C;}
</style>
<g fill="#fff">
	<path d="M43.2,27c2.2,0,2.7,0.7,2.7,2.7v10.8c0,5.6-2,10.2-6,13.7c-4.1,3.5-9.7,5.3-16.9,5.3c-14.7,0-23-7.9-23-21V20.9
		C0,8,8.3,0,23,0c11.4,0,18.7,4.5,21.9,13.4c0.6,1.7,0.1,2.9-1.7,3.5l-4.4,1.5c-1.9,0.7-2.7,0.3-3.5-1.7c-1.8-4.9-5.9-7.4-12.3-7.4
		c-8.4,0-12.9,4-12.9,11.4v17.8c0,7.5,4.6,11.5,12.9,11.5c8,0,13-3.9,13-9.5v-8.2H23.9c-2,0-2.7-0.8-2.7-2.8v0.1
		c0-2,0.6-2.4,2.6-2.4L43.2,27z"/>
	<path d="M56.5,32.8c0-11.3,6.5-17.4,18.7-17.4c12.2,0,18.6,6.9,18.6,16.6V37c0,2.3-1.2,3.5-3.6,3.5H65.9v3c0,5.2,3.3,8,9.2,8
		c4.5,0,7.6-1.4,9.5-4.3c1.3-1.8,2.2-2,4.1-1l2.8,1.5c1.8,0.9,2.2,2.2,1,4c-3.1,5.1-8.9,7.7-17.4,7.7c-12.5,0-18.5-6.7-18.5-17.2
		V32.8z M84.4,31.5c0-5.2-3.1-8.2-9.2-8.2c-6,0-9.3,3-9.3,8.2v1.8h18.6V31.5z"/>
	<path d="M125.7,15.4c1.8,0,2.5,0.6,2.5,2.5v3.5c0,1.8-0.6,2.5-2.5,2.5h-2.9c-3,0-5.5,0.3-7.6,1c-0.6,0.1-0.8,0.4-0.8,1v29.9
		c0,1.8-0.6,2.5-2.4,2.5h-4.4c-1.8,0-2.5-0.6-2.5-2.5V22.4c0-2.6,0.6-3.5,3.1-4.6c3.9-1.4,8.9-2.3,15-2.4H125.7z"/>
	<path d="M179,15.4c10.5,0,15.8,5.3,15.8,16v24.4c0,1.8-0.6,2.5-2.4,2.5h-4.4c-1.8,0-2.5-0.6-2.5-2.5v-24c0-5.2-2.6-7.8-7.8-7.8
		c-2.4,0-5,0.5-7.8,1.4c0.6,1.5,0.9,3.5,0.9,6v24.4c0,1.8-0.6,2.5-2.5,2.5h-4.3c-1.8,0-2.5-0.6-2.5-2.5v-24c0-5.2-2.7-7.8-7.9-7.8
		c-2.3,0-4.4,0.3-6.4,1c-0.4,0.2-0.6,0.5-0.6,1v29.9c0,1.8-0.6,2.5-2.4,2.5h-4.4c-1.8,0-2.5-0.6-2.5-2.5v-33c0-2.6,0.6-3.5,3.1-4.6
		c4.4-1.8,9.3-2.7,14.6-2.7c4.3,0,7.6,0.9,10,2.7C169.2,16.3,173.9,15.4,179,15.4z"/>
	<path d="M212.7,1c3.8,0,4.9,1.2,4.9,4.8v0.7c0,3.8-1.1,4.9-4.9,4.9h-0.6c-3.6,0-4.9-1.1-4.9-4.9V5.9c0-3.6,1.1-4.8,4.9-4.8H212.7z
		 M214.6,16.6c1.8,0,2.5,0.6,2.5,2.4v36.7c0,1.8-0.6,2.5-2.5,2.5h-4.4c-1.8,0-2.4-0.6-2.4-2.5V19.1c0-1.8,0.6-2.4,2.4-2.4H214.6z"/>
	<path d="M241.2,7c1.8,0,2.5,0.6,2.5,2.4v7.2h9.2c1.8,0,2.5,0.6,2.5,2.4v3.7c0,1.8-0.6,2.5-2.5,2.5h-9.2v16.2c0,3.8,0.6,6.3,1.9,7.5
		c1.2,1.2,3.6,1.8,7.2,1.8c1.9,0,2.6,0.6,2.6,2.5v3.7c0,1.9-0.6,2.5-2.6,2.6c-6.8,0.2-11.5-1-14.2-3.5c-2.8-2.6-4.2-7.3-4.2-14.1
		V25.2h-5.5c-1.8,0-2.4-0.6-2.4-2.5v-3.7c0-1.8,0.6-2.4,2.4-2.4h5.5V9.4c0-1.8,0.6-2.4,2.5-2.4H241.2z"/>
	<path d="M264.3,31.5c0-10,6.7-16.1,18.5-16.1c11.9,0,18.6,6,18.6,16.1v11.9c0,10-6.7,16.1-18.6,16.1c-11.8,0-18.5-6-18.5-16.1V31.5
		z M292,31.5c0-4.9-3.4-7.6-9.2-7.6s-9.2,2.7-9.2,7.6v11.9c0,4.8,3.3,7.6,9.2,7.6s9.2-2.8,9.2-7.6V31.5z"/>
	<path d="M344.8,16.6c2.4,0,3,1,1.7,2.9l-12.1,17.3l12.9,18.6c1.4,1.9,0.8,2.9-1.8,2.9h-3.9c-2.7,0-3.3-0.2-4.5-2.1l-8.7-12.6
		l-8.3,12.6c-1.2,1.8-1.8,2.1-4.5,2.1h-3.8c-2.9,0-3.4-1-1.8-2.9l12.9-18.5l-12.3-17.4c-1.4-1.9-0.7-2.9,1.9-2.9h3.6
		c2.8,0,3.5,0.4,4.6,2.1l8,11.3l7.8-11.3c1.2-1.8,1.7-2.1,4.3-2.1H344.8z"/>
	<g>
		<g>
			<path d="M356.4,4.5c1.6,0,2.5,0.9,2.5,2.4c0,1.1-0.5,1.9-1.5,2.2c0.1,0.1,0.3,0.3,0.4,0.5l1.2,2.3c0.1,0.3,0.1,0.4-0.2,0.4h-0.6
				c-0.5,0-0.6-0.1-0.8-0.3l-0.9-1.9c-0.3-0.6-0.6-0.8-1.3-0.8h-0.8v2.6c0,0.3-0.1,0.4-0.4,0.4h-0.6c-0.3,0-0.4-0.1-0.4-0.4V4.8
				c0-0.3,0.1-0.4,0.4-0.4H356.4z M357.5,6.9c0-0.4-0.1-0.7-0.3-0.9c-0.2-0.2-0.5-0.3-0.9-0.3h-1.9V8h1.9c0.4,0,0.7-0.1,0.9-0.3
				C357.4,7.5,357.5,7.3,357.5,6.9z"/>
		</g>
		<g>
			<path d="M355.8,17.1c-4.7,0-8.6-3.8-8.6-8.6s3.8-8.6,8.6-8.6c4.7,0,8.6,3.8,8.6,8.6S360.5,17.1,355.8,17.1z M355.8,1.8
				c-3.7,0-6.7,3-6.7,6.7s3,6.7,6.7,6.7c3.7,0,6.7-3,6.7-6.7S359.5,1.8,355.8,1.8z"/>
		</g>
	</g>
	<path class="st0" d="M40.3,27c-0.1,0-0.1,0-0.2,0H23.9l3.2-3.2c0.5-0.5,0.5-1.2,0-1.7l-2.2-2.2c-0.5-0.5-1.2-0.5-1.7,0l-6.7,6.7h0
		L16,27.1l-1.8,1.8c-0.5,0.5-0.5,1.2,0,1.7l2.2,2.2c0.1,0.1,0.1,0.1,0.2,0.1l6.6,6.6c0.5,0.5,1.2,0.5,1.7,0l2.2-2.2
		c0.5-0.5,0.5-1.2,0-1.7L24,32.5h12v0.1L40.3,27z"/>
</g>
</svg>
